<svg width="358" height="50" viewBox="0 0 358 50" fill="none" xmlns="http://www.w3.org/2000/svg">
<rect width="358" height="50" rx="2" fill="black"/>
<path d="M151.779 22.1818C151.703 21.5341 151.392 21.0312 150.846 20.6733C150.301 20.3153 149.632 20.1364 148.839 20.1364C148.26 20.1364 147.752 20.2301 147.318 20.4176C146.887 20.6051 146.551 20.8629 146.308 21.1911C146.069 21.5192 145.95 21.892 145.95 22.3097C145.95 22.6591 146.033 22.9595 146.199 23.2109C146.37 23.4581 146.587 23.6648 146.851 23.831C147.115 23.9929 147.392 24.1271 147.682 24.2337C147.972 24.3359 148.238 24.419 148.481 24.483L149.811 24.8409C150.152 24.9304 150.531 25.054 150.949 25.2116C151.37 25.3693 151.773 25.5845 152.157 25.8572C152.544 26.1257 152.864 26.4709 153.115 26.8928C153.367 27.3146 153.493 27.8324 153.493 28.446C153.493 29.1534 153.307 29.7926 152.936 30.3636C152.57 30.9347 152.033 31.3885 151.326 31.7251C150.623 32.0618 149.768 32.2301 148.762 32.2301C147.825 32.2301 147.013 32.0788 146.327 31.7763C145.645 31.4737 145.108 31.0518 144.716 30.5107C144.328 29.9695 144.109 29.3409 144.058 28.625H145.694C145.737 29.1193 145.903 29.5284 146.193 29.8523C146.487 30.1719 146.858 30.4105 147.305 30.5682C147.757 30.7216 148.243 30.7983 148.762 30.7983C149.368 30.7983 149.911 30.7003 150.392 30.5043C150.874 30.304 151.255 30.027 151.537 29.6733C151.818 29.3153 151.958 28.8977 151.958 28.4205C151.958 27.9858 151.837 27.6321 151.594 27.3594C151.351 27.0866 151.032 26.8651 150.635 26.6946C150.239 26.5241 149.811 26.375 149.35 26.2472L147.74 25.7869C146.717 25.4929 145.907 25.0732 145.311 24.5277C144.714 23.9822 144.416 23.2685 144.416 22.3864C144.416 21.6534 144.614 21.0142 145.01 20.4688C145.411 19.919 145.948 19.4929 146.621 19.1903C147.299 18.8835 148.055 18.7301 148.89 18.7301C149.734 18.7301 150.484 18.8814 151.14 19.1839C151.797 19.4822 152.316 19.8913 152.7 20.4112C153.088 20.9311 153.292 21.5213 153.314 22.1818H151.779ZM158.784 32.2301C158.161 32.2301 157.597 32.1129 157.09 31.8786C156.583 31.6399 156.18 31.2969 155.882 30.8494C155.583 30.3977 155.434 29.8523 155.434 29.2131C155.434 28.6506 155.545 28.1946 155.767 27.8452C155.988 27.4915 156.284 27.2145 156.655 27.0142C157.026 26.8139 157.435 26.6648 157.882 26.5668C158.334 26.4645 158.788 26.3835 159.244 26.3239C159.84 26.2472 160.324 26.1896 160.695 26.1513C161.07 26.1087 161.343 26.0384 161.513 25.9403C161.688 25.8423 161.775 25.6719 161.775 25.429V25.3778C161.775 24.7472 161.602 24.2571 161.257 23.9077C160.916 23.5582 160.399 23.3835 159.704 23.3835C158.984 23.3835 158.419 23.5412 158.01 23.8565C157.601 24.1719 157.313 24.5085 157.147 24.8665L155.715 24.3551C155.971 23.7585 156.312 23.294 156.738 22.9616C157.169 22.625 157.637 22.3906 158.144 22.2585C158.656 22.1222 159.159 22.054 159.653 22.054C159.968 22.054 160.33 22.0923 160.74 22.169C161.153 22.2415 161.551 22.3928 161.935 22.6229C162.323 22.853 162.644 23.2003 162.9 23.6648C163.156 24.1293 163.284 24.7514 163.284 25.5312V32H161.775V30.6705H161.698C161.596 30.8835 161.426 31.1115 161.187 31.3544C160.948 31.5973 160.631 31.804 160.235 31.9744C159.838 32.1449 159.355 32.2301 158.784 32.2301ZM159.014 30.875C159.61 30.875 160.113 30.7578 160.522 30.5234C160.936 30.2891 161.247 29.9865 161.455 29.6158C161.669 29.245 161.775 28.8551 161.775 28.446V27.0653C161.711 27.142 161.57 27.2124 161.353 27.2763C161.14 27.3359 160.893 27.3892 160.612 27.4361C160.335 27.4787 160.064 27.517 159.8 27.5511C159.54 27.581 159.329 27.6065 159.167 27.6278C158.775 27.679 158.409 27.7621 158.068 27.8771C157.731 27.9879 157.458 28.1562 157.249 28.3821C157.045 28.6037 156.943 28.9062 156.943 29.2898C156.943 29.8139 157.137 30.2102 157.524 30.4787C157.916 30.7429 158.413 30.875 159.014 30.875ZM173.714 22.1818L170.083 32H168.549L164.918 22.1818H166.555L169.265 30.0057H169.367L172.077 22.1818H173.714ZM175.705 32V22.1818H177.213V32H175.705ZM176.472 20.5455C176.178 20.5455 175.924 20.4453 175.711 20.245C175.502 20.0447 175.398 19.804 175.398 19.5227C175.398 19.2415 175.502 19.0007 175.711 18.8004C175.924 18.6001 176.178 18.5 176.472 18.5C176.766 18.5 177.017 18.6001 177.226 18.8004C177.439 19.0007 177.546 19.2415 177.546 19.5227C177.546 19.804 177.439 20.0447 177.226 20.245C177.017 20.4453 176.766 20.5455 176.472 20.5455ZM181.485 26.0938V32H179.976V22.1818H181.434V23.7159H181.562C181.792 23.2173 182.141 22.8168 182.61 22.5142C183.079 22.2074 183.684 22.054 184.425 22.054C185.09 22.054 185.672 22.1903 186.17 22.4631C186.669 22.7315 187.057 23.1406 187.334 23.6903C187.611 24.2358 187.749 24.9261 187.749 25.7614V32H186.241V25.8636C186.241 25.0923 186.04 24.4915 185.64 24.0611C185.239 23.6264 184.689 23.4091 183.991 23.4091C183.509 23.4091 183.079 23.5135 182.699 23.7223C182.324 23.9311 182.028 24.2358 181.811 24.6364C181.594 25.0369 181.485 25.5227 181.485 26.0938ZM194.469 35.8864C193.74 35.8864 193.114 35.7926 192.589 35.6051C192.065 35.4219 191.629 35.179 191.279 34.8764C190.934 34.5781 190.659 34.2585 190.455 33.9176L191.656 33.0739C191.793 33.2528 191.965 33.4574 192.174 33.6875C192.383 33.9219 192.668 34.1243 193.031 34.2947C193.397 34.4695 193.876 34.5568 194.469 34.5568C195.261 34.5568 195.915 34.3651 196.431 33.9815C196.947 33.598 197.205 32.9972 197.205 32.179V30.1847H197.077C196.966 30.3636 196.808 30.5852 196.604 30.8494C196.403 31.1094 196.114 31.3416 195.734 31.5462C195.359 31.7464 194.852 31.8466 194.213 31.8466C193.42 31.8466 192.709 31.6591 192.078 31.2841C191.452 30.9091 190.955 30.3636 190.589 29.6477C190.227 28.9318 190.045 28.0625 190.045 27.0398C190.045 26.0341 190.222 25.1584 190.576 24.4126C190.93 23.6626 191.422 23.0831 192.053 22.674C192.683 22.2607 193.412 22.054 194.239 22.054C194.878 22.054 195.385 22.1605 195.76 22.3736C196.139 22.5824 196.429 22.821 196.629 23.0895C196.834 23.3537 196.991 23.571 197.102 23.7415H197.256V22.1818H198.713V32.2812C198.713 33.125 198.521 33.8111 198.138 34.3395C197.759 34.8722 197.247 35.2621 196.604 35.5092C195.964 35.7607 195.253 35.8864 194.469 35.8864ZM194.418 30.4915C195.023 30.4915 195.534 30.353 195.952 30.076C196.369 29.799 196.687 29.4006 196.904 28.8807C197.121 28.3608 197.23 27.7386 197.23 27.0142C197.23 26.3068 197.124 25.6825 196.911 25.1413C196.697 24.6001 196.382 24.1761 195.964 23.8693C195.547 23.5625 195.031 23.4091 194.418 23.4091C193.778 23.4091 193.246 23.571 192.82 23.8949C192.398 24.2187 192.08 24.6534 191.867 25.1989C191.658 25.7443 191.554 26.3494 191.554 27.0142C191.554 27.696 191.661 28.299 191.874 28.8232C192.091 29.343 192.411 29.7521 192.832 30.0504C193.259 30.3445 193.787 30.4915 194.418 30.4915ZM202.574 32.1023C202.259 32.1023 201.988 31.9893 201.762 31.7635C201.536 31.5376 201.423 31.267 201.423 30.9517C201.423 30.6364 201.536 30.3658 201.762 30.1399C201.988 29.9141 202.259 29.8011 202.574 29.8011C202.889 29.8011 203.16 29.9141 203.386 30.1399C203.612 30.3658 203.724 30.6364 203.724 30.9517C203.724 31.1605 203.671 31.3523 203.565 31.527C203.462 31.7017 203.324 31.8423 203.149 31.9489C202.979 32.0511 202.787 32.1023 202.574 32.1023ZM207.531 32.1023C207.216 32.1023 206.945 31.9893 206.719 31.7635C206.493 31.5376 206.38 31.267 206.38 30.9517C206.38 30.6364 206.493 30.3658 206.719 30.1399C206.945 29.9141 207.216 29.8011 207.531 29.8011C207.846 29.8011 208.117 29.9141 208.343 30.1399C208.569 30.3658 208.681 30.6364 208.681 30.9517C208.681 31.1605 208.628 31.3523 208.522 31.527C208.419 31.7017 208.281 31.8423 208.106 31.9489C207.936 32.0511 207.744 32.1023 207.531 32.1023ZM212.488 32.1023C212.173 32.1023 211.902 31.9893 211.676 31.7635C211.45 31.5376 211.337 31.267 211.337 30.9517C211.337 30.6364 211.45 30.3658 211.676 30.1399C211.902 29.9141 212.173 29.8011 212.488 29.8011C212.803 29.8011 213.074 29.9141 213.3 30.1399C213.526 30.3658 213.638 30.6364 213.638 30.9517C213.638 31.1605 213.585 31.3523 213.479 31.527C213.376 31.7017 213.238 31.8423 213.063 31.9489C212.893 32.0511 212.701 32.1023 212.488 32.1023Z" fill="white"/>
</svg>
